{
	"asset":{
		"generator":"Khronos glTF Blender I/O v4.0.44",
		"version":"2.0"
	},
	"extensionsUsed":[
		"KHR_materials_specular",
		"KHR_materials_ior",
		"KHR_texture_transform"
	],
	"extensionsRequired":[
		"KHR_texture_transform"
	],
	"scene":0,
	"scenes":[
		{
			"name":"Scene",
			"nodes":[
				0,
				1,
				2,
				3,
				4,
				5
			]
		}
	],
	"nodes":[
		{
			"mesh":0,
			"name":"Dance_2_Zip.006"
		},
		{
			"mesh":1,
			"name":"Dance_2_Zip.008"
		},
		{
			"mesh":2,
			"name":"Dance_2_Rib.003"
		},
		{
			"mesh":3,
			"name":"Dance_2_Zip.003"
		},
		{
			"mesh":4,
			"name":"Dance_2_Zip.004"
		},
		{
			"mesh":5,
			"name":"Dance_2.001"
		}
	],
	"materials":[
		{
			"doubleSided":true,
			"extensions":{
				"KHR_materials_specular":{
					"specularColorFactor":[
						2.0,
						2.0,
						2.0
					]
				},
				"KHR_materials_ior":{
					"ior":1.4500000476837158
				}
			},
			"name":"Trim_Hardware_FRONT_2164.004",
			"normalTexture":{
				"index":0
			},
			"pbrMetallicRoughness":{
				"baseColorTexture":{
					"index":1
				},
				"metallicFactor":0,
				"roughnessFactor":0.4636862874031067
			}
		},
		{
			"doubleSided":true,
			"name":"Material.003",
			"pbrMetallicRoughness":{
				"baseColorTexture":{
					"index":2
				},
				"metallicFactor":0,
				"roughnessFactor":0.6000000238418579
			}
		},
		{
			"doubleSided":true,
			"name":"Purple Rib.003",
			"normalTexture":{
				"extensions":{
					"KHR_texture_transform":{
						"offset":[
							-6.499999999999994,
							1.000000284124035
						],
						"rotation":1.5707963705062866,
						"scale":[
							6.5,
							6.5
						]
					}
				},
				"index":3,
				"scale":3
			},
			"pbrMetallicRoughness":{
				"baseColorTexture":{
					"index":4
				},
				"metallicFactor":0,
				"metallicRoughnessTexture":{
					"extensions":{
						"KHR_texture_transform":{
							"offset":[
								-6.499999999999994,
								1.000000284124035
							],
							"rotation":1.5707963705062866,
							"scale":[
								6.5,
								6.5
							]
						}
					},
					"index":5
				}
			}
		},
		{
			"doubleSided":true,
			"emissiveFactor":[
				1,
				1,
				1
			],
			"name":"Metal Plastic.002",
			"pbrMetallicRoughness":{}
		},
		{
			"doubleSided":true,
			"name":"Metal Plastic.006",
			"pbrMetallicRoughness":{
				"baseColorTexture":{
					"index":6
				},
				"metallicFactor":0.2136363685131073,
				"roughnessFactor":0.46590909361839294
			}
		},
		{
			"doubleSided":true,
			"name":"Linien Staub.001",
			"normalTexture":{
				"extensions":{
					"KHR_texture_transform":{
						"offset":[
							0,
							-14.5
						],
						"scale":[
							15.5,
							15.5
						]
					}
				},
				"index":7
			},
			"pbrMetallicRoughness":{
				"baseColorTexture":{
					"index":8
				},
				"metallicFactor":0,
				"metallicRoughnessTexture":{
					"extensions":{
						"KHR_texture_transform":{
							"offset":[
								0,
								-14.5
							],
							"scale":[
								15.5,
								15.5
							]
						}
					},
					"index":9
				}
			}
		}
	],
	"meshes":[
		{
			"name":"cloth_shape_0.014",
			"primitives":[
				{
					"attributes":{
						"POSITION":0,
						"NORMAL":1,
						"TEXCOORD_0":2
					},
					"indices":3,
					"material":0
				}
			]
		},
		{
			"name":"cloth_shape_0.017",
			"primitives":[
				{
					"attributes":{
						"POSITION":4,
						"NORMAL":5,
						"TEXCOORD_0":6
					},
					"indices":7,
					"material":1
				}
			]
		},
		{
			"name":"cloth_shape_0.012",
			"primitives":[
				{
					"attributes":{
						"POSITION":8,
						"NORMAL":9,
						"TEXCOORD_0":10
					},
					"indices":11,
					"material":2
				}
			]
		},
		{
			"name":"cloth_shape_0.004",
			"primitives":[
				{
					"attributes":{
						"POSITION":12,
						"NORMAL":13,
						"TEXCOORD_0":14
					},
					"indices":15,
					"material":3
				}
			]
		},
		{
			"name":"cloth_shape_0.005",
			"primitives":[
				{
					"attributes":{
						"POSITION":16,
						"NORMAL":17,
						"TEXCOORD_0":18
					},
					"indices":15,
					"material":4
				}
			]
		},
		{
			"name":"cloth_shape_0.001",
			"primitives":[
				{
					"attributes":{
						"POSITION":19,
						"NORMAL":20,
						"TEXCOORD_0":21
					},
					"indices":22,
					"material":5
				}
			]
		}
	],
	"textures":[
		{
			"sampler":0,
			"source":0
		},
		{
			"sampler":0,
			"source":1
		},
		{
			"sampler":0,
			"source":2
		},
		{
			"sampler":0,
			"source":3
		},
		{
			"sampler":0,
			"source":4
		},
		{
			"sampler":0,
			"source":5
		},
		{
			"sampler":0,
			"source":1
		},
		{
			"sampler":0,
			"source":6
		},
		{
			"sampler":0,
			"source":1
		},
		{
			"sampler":0,
			"source":7
		}
	],
	"images":[
		{
			"mimeType":"image/png",
			"name":"Plastic_01_Tape_NRM",
			"uri":"Material_1/Plastic_01_Tape_NRM.png"
		},
		{
			"mimeType":"image/jpeg",
			"name":"Zip Color_3",
			"uri":"Material_1/Zip%20Color_3.jpg"
		},
		{
			"mimeType":"image/jpeg",
			"name":"Naht",
			"uri":"Material_1/Naht.jpg"
		},
		{
			"mimeType":"image/jpeg",
			"name":"Fabric026_4K-PNG_NormalGL",
			"uri":"Material_1/Fabric026_4K-PNG_NormalGL.jpg"
		},
		{
			"mimeType":"image/jpeg",
			"name":"Rib Color Green_2",
			"uri":"Material_1/Rib%20Color%20Green_2.jpg"
		},
		{
			"mimeType":"image/png",
			"name":"Fabric026_4K-PNG_Roughness",
			"uri":"Material_1/Fabric026_4K-PNG_Roughness.png"
		},
		{
			"mimeType":"image/jpeg",
			"name":"TCom_FabricLinen_Large_4K_normal",
			"uri":"Material_1/TCom_FabricLinen_Large_4K_normal.jpg"
		},
		{
			"mimeType":"image/jpeg",
			"name":"TCom_FabricLinen_Large_4K_roughness_2",
			"uri":"Material_1/TCom_FabricLinen_Large_4K_roughness_2.jpg"
		}
	],
	"accessors":[
		{
			"bufferView":0,
			"componentType":5126,
			"count":568,
			"max":[
				0.006325568538159132,
				0.23387953639030457,
				0.07100178301334381
			],
			"min":[
				-0.004402773920446634,
				-0.2048894464969635,
				0.0022808383218944073
			],
			"type":"VEC3"
		},
		{
			"bufferView":1,
			"componentType":5126,
			"count":568,
			"type":"VEC3"
		},
		{
			"bufferView":2,
			"componentType":5126,
			"count":568,
			"type":"VEC2"
		},
		{
			"bufferView":3,
			"componentType":5123,
			"count":2256,
			"type":"SCALAR"
		},
		{
			"bufferView":4,
			"componentType":5126,
			"count":140144,
			"max":[
				0.4700472056865692,
				0.18367037177085876,
				0.07564816623926163
			],
			"min":[
				-0.4731051027774811,
				-0.25867894291877747,
				-0.1626187562942505
			],
			"type":"VEC3"
		},
		{
			"bufferView":5,
			"componentType":5126,
			"count":140144,
			"type":"VEC3"
		},
		{
			"bufferView":6,
			"componentType":5126,
			"count":140144,
			"type":"VEC2"
		},
		{
			"bufferView":7,
			"componentType":5125,
			"count":721812,
			"type":"SCALAR"
		},
		{
			"bufferView":8,
			"componentType":5126,
			"count":99828,
			"max":[
				0.540672242641449,
				0.24693290889263153,
				0.0778934434056282
			],
			"min":[
				-0.5451532602310181,
				-0.3409101963043213,
				-0.13050851225852966
			],
			"type":"VEC3"
		},
		{
			"bufferView":9,
			"componentType":5126,
			"count":99828,
			"type":"VEC3"
		},
		{
			"bufferView":10,
			"componentType":5126,
			"count":99828,
			"type":"VEC2"
		},
		{
			"bufferView":11,
			"componentType":5125,
			"count":598752,
			"type":"SCALAR"
		},
		{
			"bufferView":12,
			"componentType":5126,
			"count":101851,
			"max":[
				0.0050000534392893314,
				0.23584815859794617,
				0.07151444256305695
			],
			"min":[
				-0.004533327184617519,
				-0.2049417793750763,
				0.001597544876858592
			],
			"type":"VEC3"
		},
		{
			"bufferView":13,
			"componentType":5126,
			"count":101851,
			"type":"VEC3"
		},
		{
			"bufferView":14,
			"componentType":5126,
			"count":101851,
			"type":"VEC2"
		},
		{
			"bufferView":15,
			"componentType":5125,
			"count":473106,
			"type":"SCALAR"
		},
		{
			"bufferView":16,
			"componentType":5126,
			"count":101851,
			"max":[
				0.0050000534392893314,
				0.23584815859794617,
				0.07151444256305695
			],
			"min":[
				-0.004533327184617519,
				-0.2049417793750763,
				0.001597544876858592
			],
			"type":"VEC3"
		},
		{
			"bufferView":17,
			"componentType":5126,
			"count":101851,
			"type":"VEC3"
		},
		{
			"bufferView":18,
			"componentType":5126,
			"count":101851,
			"type":"VEC2"
		},
		{
			"bufferView":19,
			"componentType":5126,
			"count":142978,
			"max":[
				0.49248313903808594,
				0.18979163467884064,
				0.07763561606407166
			],
			"min":[
				-0.49501946568489075,
				-0.29333245754241943,
				-0.1764100342988968
			],
			"type":"VEC3"
		},
		{
			"bufferView":20,
			"componentType":5126,
			"count":142978,
			"type":"VEC3"
		},
		{
			"bufferView":21,
			"componentType":5126,
			"count":142978,
			"type":"VEC2"
		},
		{
			"bufferView":22,
			"componentType":5125,
			"count":857760,
			"type":"SCALAR"
		}
	],
	"bufferViews":[
		{
			"buffer":0,
			"byteLength":6816,
			"byteOffset":0,
			"target":34962
		},
		{
			"buffer":0,
			"byteLength":6816,
			"byteOffset":6816,
			"target":34962
		},
		{
			"buffer":0,
			"byteLength":4544,
			"byteOffset":13632,
			"target":34962
		},
		{
			"buffer":0,
			"byteLength":4512,
			"byteOffset":18176,
			"target":34963
		},
		{
			"buffer":0,
			"byteLength":1681728,
			"byteOffset":22688,
			"target":34962
		},
		{
			"buffer":0,
			"byteLength":1681728,
			"byteOffset":1704416,
			"target":34962
		},
		{
			"buffer":0,
			"byteLength":1121152,
			"byteOffset":3386144,
			"target":34962
		},
		{
			"buffer":0,
			"byteLength":2887248,
			"byteOffset":4507296,
			"target":34963
		},
		{
			"buffer":0,
			"byteLength":1197936,
			"byteOffset":7394544,
			"target":34962
		},
		{
			"buffer":0,
			"byteLength":1197936,
			"byteOffset":8592480,
			"target":34962
		},
		{
			"buffer":0,
			"byteLength":798624,
			"byteOffset":9790416,
			"target":34962
		},
		{
			"buffer":0,
			"byteLength":2395008,
			"byteOffset":10589040,
			"target":34963
		},
		{
			"buffer":0,
			"byteLength":1222212,
			"byteOffset":12984048,
			"target":34962
		},
		{
			"buffer":0,
			"byteLength":1222212,
			"byteOffset":14206260,
			"target":34962
		},
		{
			"buffer":0,
			"byteLength":814808,
			"byteOffset":15428472,
			"target":34962
		},
		{
			"buffer":0,
			"byteLength":1892424,
			"byteOffset":16243280,
			"target":34963
		},
		{
			"buffer":0,
			"byteLength":1222212,
			"byteOffset":18135704,
			"target":34962
		},
		{
			"buffer":0,
			"byteLength":1222212,
			"byteOffset":19357916,
			"target":34962
		},
		{
			"buffer":0,
			"byteLength":814808,
			"byteOffset":20580128,
			"target":34962
		},
		{
			"buffer":0,
			"byteLength":1715736,
			"byteOffset":21394936,
			"target":34962
		},
		{
			"buffer":0,
			"byteLength":1715736,
			"byteOffset":23110672,
			"target":34962
		},
		{
			"buffer":0,
			"byteLength":1143824,
			"byteOffset":24826408,
			"target":34962
		},
		{
			"buffer":0,
			"byteLength":3431040,
			"byteOffset":25970232,
			"target":34963
		}
	],
	"samplers":[
		{
			"magFilter":9729,
			"minFilter":9987
		}
	],
	"buffers":[
		{
			"byteLength":29401272,
			"uri":"Custommizer_1.bin"
		}
	]
}
