{
	"asset":{
		"generator":"Khronos glTF Blender I/O v4.0.44",
		"version":"2.0"
	},
	"scene":0,
	"scenes":[
		{
			"name":"Scene",
			"nodes":[
				0
			]
		}
	],
	"nodes":[
		{
			"mesh":0,
			"name":"Dance_2.001"
		}
	],
	"meshes":[
		{
			"name":"cloth_shape_0.001",
			"primitives":[
				{
					"attributes":{
						"POSITION":0,
						"NORMAL":1,
						"TEXCOORD_0":2
					},
					"indices":3
				}
			]
		}
	],
	"accessors":[
		{
			"bufferView":0,
			"componentType":5126,
			"count":142978,
			"max":[
				0.49248313903808594,
				0.18979163467884064,
				0.07763561606407166
			],
			"min":[
				-0.49501946568489075,
				-0.29333245754241943,
				-0.1764100342988968
			],
			"type":"VEC3"
		},
		{
			"bufferView":1,
			"componentType":5126,
			"count":142978,
			"type":"VEC3"
		},
		{
			"bufferView":2,
			"componentType":5126,
			"count":142978,
			"type":"VEC2"
		},
		{
			"bufferView":3,
			"componentType":5125,
			"count":857760,
			"type":"SCALAR"
		}
	],
	"bufferViews":[
		{
			"buffer":0,
			"byteLength":1715736,
			"byteOffset":0,
			"target":34962
		},
		{
			"buffer":0,
			"byteLength":1715736,
			"byteOffset":1715736,
			"target":34962
		},
		{
			"buffer":0,
			"byteLength":1143824,
			"byteOffset":3431472,
			"target":34962
		},
		{
			"buffer":0,
			"byteLength":3431040,
			"byteOffset":4575296,
			"target":34963
		}
	],
	"buffers":[
		{
			"byteLength":8006336,
			"uri":"Custommizer_8.bin"
		}
	]
}
