{
	"asset":{
		"generator":"Khronos glTF Blender I/O v4.0.44",
		"version":"2.0"
	},
	"extensionsUsed":[
		"KHR_texture_transform",
		"KHR_materials_variants"
	],
	"extensionsRequired":[
		"KHR_texture_transform",
		"KHR_materials_variants"
	],
	"extensions":{
		"KHR_materials_variants":{
			"variants":[
				{
					"name":"Green"
				},
				{
					"name":"Orange"
				}
			]
		}
	},
	"scene":0,
	"scenes":[
		{
			"name":"Scene",
			"nodes":[
				0
			]
		}
	],
	"nodes":[
		{
			"mesh":0,
			"name":"Dance_2.001"
		}
	],
	"materials":[
		{
			"doubleSided":true,
			"name":"Linien Staub.001",
			"normalTexture":{
				"extensions":{
					"KHR_texture_transform":{
						"offset":[
							0,
							-14.5
						],
						"scale":[
							15.5,
							15.5
						]
					}
				},
				"index":0
			},
			"pbrMetallicRoughness":{
				"baseColorTexture":{
					"index":1
				},
				"metallicFactor":0,
				"metallicRoughnessTexture":{
					"extensions":{
						"KHR_texture_transform":{
							"offset":[
								0,
								-14.5
							],
							"scale":[
								15.5,
								15.5
							]
						}
					},
					"index":2
				}
			}
		},
		{
			"doubleSided":true,
			"name":"Linien Staub.002",
			"normalTexture":{
				"extensions":{
					"KHR_texture_transform":{
						"offset":[
							0,
							-14.5
						],
						"scale":[
							15.5,
							15.5
						]
					}
				},
				"index":3
			},
			"pbrMetallicRoughness":{
				"baseColorTexture":{
					"index":4
				},
				"metallicFactor":0,
				"metallicRoughnessTexture":{
					"extensions":{
						"KHR_texture_transform":{
							"offset":[
								0,
								-14.5
							],
							"scale":[
								15.5,
								15.5
							]
						}
					},
					"index":5
				}
			}
		}
	],
	"meshes":[
		{
			"name":"cloth_shape_0.001",
			"primitives":[
				{
					"attributes":{
						"POSITION":0,
						"NORMAL":1,
						"TEXCOORD_0":2
					},
					"extensions":{
						"KHR_materials_variants":{
							"mappings":[
								{
									"material":0,
									"variants":[
										0,
										1
									]
								},
								{
									"material":1,
									"variants":[
										1
									]
								}
							]
						}
					},
					"indices":3,
					"material":0
				}
			]
		}
	],
	"textures":[
		{
			"sampler":0,
			"source":0
		},
		{
			"sampler":0,
			"source":1
		},
		{
			"sampler":0,
			"source":2
		},
		{
			"sampler":0,
			"source":0
		},
		{
			"sampler":0,
			"source":3
		},
		{
			"sampler":0,
			"source":2
		}
	],
	"images":[
		{
			"mimeType":"image/jpeg",
			"name":"TCom_FabricLinen_Large_4K_normal",
			"uri":"Material_7/TCom_FabricLinen_Large_4K_normal.jpg"
		},
		{
			"mimeType":"image/jpeg",
			"name":"Zip Color_3",
			"uri":"Material_7/Zip%20Color_3.jpg"
		},
		{
			"mimeType":"image/jpeg",
			"name":"TCom_FabricLinen_Large_4K_roughness_2",
			"uri":"Material_7/TCom_FabricLinen_Large_4K_roughness_2.jpg"
		},
		{
			"mimeType":"image/jpeg",
			"name":"Orange",
			"uri":"Material_7/Orange.jpg"
		}
	],
	"accessors":[
		{
			"bufferView":0,
			"componentType":5126,
			"count":142978,
			"max":[
				0.49248313903808594,
				0.18979163467884064,
				0.07763561606407166
			],
			"min":[
				-0.49501946568489075,
				-0.29333245754241943,
				-0.1764100342988968
			],
			"type":"VEC3"
		},
		{
			"bufferView":1,
			"componentType":5126,
			"count":142978,
			"type":"VEC3"
		},
		{
			"bufferView":2,
			"componentType":5126,
			"count":142978,
			"type":"VEC2"
		},
		{
			"bufferView":3,
			"componentType":5125,
			"count":857760,
			"type":"SCALAR"
		}
	],
	"bufferViews":[
		{
			"buffer":0,
			"byteLength":1715736,
			"byteOffset":0,
			"target":34962
		},
		{
			"buffer":0,
			"byteLength":1715736,
			"byteOffset":1715736,
			"target":34962
		},
		{
			"buffer":0,
			"byteLength":1143824,
			"byteOffset":3431472,
			"target":34962
		},
		{
			"buffer":0,
			"byteLength":3431040,
			"byteOffset":4575296,
			"target":34963
		}
	],
	"samplers":[
		{
			"magFilter":9729,
			"minFilter":9987
		}
	],
	"buffers":[
		{
			"byteLength":8006336,
			"uri":"Custommizer_7.bin"
		}
	]
}
