{
	"asset":{
		"generator":"Khronos glTF Blender I/O v4.0.44",
		"version":"2.0"
	},
	"scene":0,
	"scenes":[
		{
			"name":"Scene",
			"nodes":[
				0,
				1,
				2,
				3,
				4,
				5
			]
		}
	],
	"nodes":[
		{
			"mesh":0,
			"name":"Dance_2_Zip.006"
		},
		{
			"mesh":1,
			"name":"Dance_2_Zip.008"
		},
		{
			"mesh":2,
			"name":"Dance_2_Rib.003"
		},
		{
			"mesh":3,
			"name":"Dance_2_Zip.003"
		},
		{
			"mesh":4,
			"name":"Dance_2_Zip.004"
		},
		{
			"mesh":5,
			"name":"Dance_2.001"
		}
	],
	"meshes":[
		{
			"name":"cloth_shape_0.014",
			"primitives":[
				{
					"attributes":{
						"POSITION":0,
						"NORMAL":1,
						"TEXCOORD_0":2
					},
					"indices":3
				}
			]
		},
		{
			"name":"cloth_shape_0.017",
			"primitives":[
				{
					"attributes":{
						"POSITION":4,
						"NORMAL":5,
						"TEXCOORD_0":6
					},
					"indices":7
				}
			]
		},
		{
			"name":"cloth_shape_0.012",
			"primitives":[
				{
					"attributes":{
						"POSITION":8,
						"NORMAL":9,
						"TEXCOORD_0":10
					},
					"indices":11
				}
			]
		},
		{
			"name":"cloth_shape_0.004",
			"primitives":[
				{
					"attributes":{
						"POSITION":12,
						"NORMAL":13,
						"TEXCOORD_0":14
					},
					"indices":15
				}
			]
		},
		{
			"name":"cloth_shape_0.005",
			"primitives":[
				{
					"attributes":{
						"POSITION":16,
						"NORMAL":17,
						"TEXCOORD_0":18
					},
					"indices":15
				}
			]
		},
		{
			"name":"cloth_shape_0.001",
			"primitives":[
				{
					"attributes":{
						"POSITION":19,
						"NORMAL":20,
						"TEXCOORD_0":21
					},
					"indices":22
				}
			]
		}
	],
	"accessors":[
		{
			"bufferView":0,
			"componentType":5126,
			"count":79,
			"max":[
				0.006329266354441643,
				0.23386745154857635,
				0.070735864341259
			],
			"min":[
				-0.004511227365583181,
				-0.20489029586315155,
				0.0018433055374771357
			],
			"type":"VEC3"
		},
		{
			"bufferView":1,
			"componentType":5126,
			"count":79,
			"type":"VEC3"
		},
		{
			"bufferView":2,
			"componentType":5126,
			"count":79,
			"type":"VEC2"
		},
		{
			"bufferView":3,
			"componentType":5123,
			"count":225,
			"type":"SCALAR"
		},
		{
			"bufferView":4,
			"componentType":5126,
			"count":140144,
			"max":[
				0.4700472056865692,
				0.18367037177085876,
				0.07564816623926163
			],
			"min":[
				-0.4731051027774811,
				-0.25867894291877747,
				-0.1626187562942505
			],
			"type":"VEC3"
		},
		{
			"bufferView":5,
			"componentType":5126,
			"count":140144,
			"type":"VEC3"
		},
		{
			"bufferView":6,
			"componentType":5126,
			"count":140144,
			"type":"VEC2"
		},
		{
			"bufferView":7,
			"componentType":5125,
			"count":721812,
			"type":"SCALAR"
		},
		{
			"bufferView":8,
			"componentType":5126,
			"count":9436,
			"max":[
				0.540741503238678,
				0.2469671666622162,
				0.07798802852630615
			],
			"min":[
				-0.5452233552932739,
				-0.3410431742668152,
				-0.1305115520954132
			],
			"type":"VEC3"
		},
		{
			"bufferView":9,
			"componentType":5126,
			"count":9436,
			"type":"VEC3"
		},
		{
			"bufferView":10,
			"componentType":5126,
			"count":9436,
			"type":"VEC2"
		},
		{
			"bufferView":11,
			"componentType":5123,
			"count":56400,
			"type":"SCALAR"
		},
		{
			"bufferView":12,
			"componentType":5126,
			"count":101851,
			"max":[
				0.0050000534392893314,
				0.23584815859794617,
				0.07151444256305695
			],
			"min":[
				-0.004533327184617519,
				-0.2049417793750763,
				0.001597544876858592
			],
			"type":"VEC3"
		},
		{
			"bufferView":13,
			"componentType":5126,
			"count":101851,
			"type":"VEC3"
		},
		{
			"bufferView":14,
			"componentType":5126,
			"count":101851,
			"type":"VEC2"
		},
		{
			"bufferView":15,
			"componentType":5125,
			"count":473106,
			"type":"SCALAR"
		},
		{
			"bufferView":16,
			"componentType":5126,
			"count":101851,
			"max":[
				0.0050000534392893314,
				0.23584815859794617,
				0.07151444256305695
			],
			"min":[
				-0.004533327184617519,
				-0.2049417793750763,
				0.001597544876858592
			],
			"type":"VEC3"
		},
		{
			"bufferView":17,
			"componentType":5126,
			"count":101851,
			"type":"VEC3"
		},
		{
			"bufferView":18,
			"componentType":5126,
			"count":101851,
			"type":"VEC2"
		},
		{
			"bufferView":19,
			"componentType":5126,
			"count":39383,
			"max":[
				0.4924798607826233,
				0.18979321420192719,
				0.0776730626821518
			],
			"min":[
				-0.4950143098831177,
				-0.29333245754241943,
				-0.1764352172613144
			],
			"type":"VEC3"
		},
		{
			"bufferView":20,
			"componentType":5126,
			"count":39383,
			"type":"VEC3"
		},
		{
			"bufferView":21,
			"componentType":5126,
			"count":39383,
			"type":"VEC2"
		},
		{
			"bufferView":22,
			"componentType":5123,
			"count":236190,
			"type":"SCALAR"
		}
	],
	"bufferViews":[
		{
			"buffer":0,
			"byteLength":948,
			"byteOffset":0,
			"target":34962
		},
		{
			"buffer":0,
			"byteLength":948,
			"byteOffset":948,
			"target":34962
		},
		{
			"buffer":0,
			"byteLength":632,
			"byteOffset":1896,
			"target":34962
		},
		{
			"buffer":0,
			"byteLength":450,
			"byteOffset":2528,
			"target":34963
		},
		{
			"buffer":0,
			"byteLength":1681728,
			"byteOffset":2980,
			"target":34962
		},
		{
			"buffer":0,
			"byteLength":1681728,
			"byteOffset":1684708,
			"target":34962
		},
		{
			"buffer":0,
			"byteLength":1121152,
			"byteOffset":3366436,
			"target":34962
		},
		{
			"buffer":0,
			"byteLength":2887248,
			"byteOffset":4487588,
			"target":34963
		},
		{
			"buffer":0,
			"byteLength":113232,
			"byteOffset":7374836,
			"target":34962
		},
		{
			"buffer":0,
			"byteLength":113232,
			"byteOffset":7488068,
			"target":34962
		},
		{
			"buffer":0,
			"byteLength":75488,
			"byteOffset":7601300,
			"target":34962
		},
		{
			"buffer":0,
			"byteLength":112800,
			"byteOffset":7676788,
			"target":34963
		},
		{
			"buffer":0,
			"byteLength":1222212,
			"byteOffset":7789588,
			"target":34962
		},
		{
			"buffer":0,
			"byteLength":1222212,
			"byteOffset":9011800,
			"target":34962
		},
		{
			"buffer":0,
			"byteLength":814808,
			"byteOffset":10234012,
			"target":34962
		},
		{
			"buffer":0,
			"byteLength":1892424,
			"byteOffset":11048820,
			"target":34963
		},
		{
			"buffer":0,
			"byteLength":1222212,
			"byteOffset":12941244,
			"target":34962
		},
		{
			"buffer":0,
			"byteLength":1222212,
			"byteOffset":14163456,
			"target":34962
		},
		{
			"buffer":0,
			"byteLength":814808,
			"byteOffset":15385668,
			"target":34962
		},
		{
			"buffer":0,
			"byteLength":472596,
			"byteOffset":16200476,
			"target":34962
		},
		{
			"buffer":0,
			"byteLength":472596,
			"byteOffset":16673072,
			"target":34962
		},
		{
			"buffer":0,
			"byteLength":315064,
			"byteOffset":17145668,
			"target":34962
		},
		{
			"buffer":0,
			"byteLength":472380,
			"byteOffset":17460732,
			"target":34963
		}
	],
	"buffers":[
		{
			"byteLength":17933112,
			"uri":"Custommizer_4.bin"
		}
	]
}
