{
	"asset":{
		"generator":"Khronos glTF Blender I/O v4.0.44",
		"version":"2.0"
	},
	"extensionsUsed":[
		"KHR_materials_specular",
		"KHR_materials_ior",
		"KHR_texture_transform"
	],
	"extensionsRequired":[
		"KHR_texture_transform"
	],
	"scene":0,
	"scenes":[
		{
			"name":"Scene",
			"nodes":[
				0,
				1,
				2,
				3,
				4,
				5
			]
		}
	],
	"nodes":[
		{
			"mesh":0,
			"name":"Dance_2_Zip.006"
		},
		{
			"mesh":1,
			"name":"Dance_2_Zip.008"
		},
		{
			"mesh":2,
			"name":"Dance_2_Rib.003"
		},
		{
			"mesh":3,
			"name":"Dance_2_Zip.003"
		},
		{
			"mesh":4,
			"name":"Dance_2_Zip.004"
		},
		{
			"mesh":5,
			"name":"Dance_2.001"
		}
	],
	"materials":[
		{
			"doubleSided":true,
			"extensions":{
				"KHR_materials_specular":{
					"specularColorFactor":[
						2.0,
						2.0,
						2.0
					]
				},
				"KHR_materials_ior":{
					"ior":1.4500000476837158
				}
			},
			"name":"Trim_Hardware_FRONT_2164.004",
			"normalTexture":{
				"index":0
			},
			"pbrMetallicRoughness":{
				"baseColorTexture":{
					"index":1
				},
				"metallicFactor":0,
				"roughnessFactor":0.4636862874031067
			}
		},
		{
			"doubleSided":true,
			"name":"Material.003",
			"pbrMetallicRoughness":{
				"baseColorTexture":{
					"index":2
				},
				"metallicFactor":0,
				"roughnessFactor":0.6000000238418579
			}
		},
		{
			"doubleSided":true,
			"name":"Purple Rib.003",
			"normalTexture":{
				"extensions":{
					"KHR_texture_transform":{
						"offset":[
							-6.499999999999994,
							1.000000284124035
						],
						"rotation":1.5707963705062866,
						"scale":[
							6.5,
							6.5
						]
					}
				},
				"index":3,
				"scale":3
			},
			"pbrMetallicRoughness":{
				"baseColorTexture":{
					"index":4
				},
				"metallicFactor":0,
				"metallicRoughnessTexture":{
					"extensions":{
						"KHR_texture_transform":{
							"offset":[
								-6.499999999999994,
								1.000000284124035
							],
							"rotation":1.5707963705062866,
							"scale":[
								6.5,
								6.5
							]
						}
					},
					"index":5
				}
			}
		},
		{
			"doubleSided":true,
			"emissiveFactor":[
				1,
				1,
				1
			],
			"name":"Metal Plastic.002",
			"pbrMetallicRoughness":{}
		},
		{
			"doubleSided":true,
			"name":"Metal Plastic.006",
			"pbrMetallicRoughness":{
				"baseColorTexture":{
					"index":6
				},
				"metallicFactor":0.2136363685131073,
				"roughnessFactor":0.46590909361839294
			}
		},
		{
			"doubleSided":true,
			"name":"Linien Staub.001",
			"normalTexture":{
				"extensions":{
					"KHR_texture_transform":{
						"offset":[
							0,
							-14.5
						],
						"scale":[
							15.5,
							15.5
						]
					}
				},
				"index":7
			},
			"pbrMetallicRoughness":{
				"baseColorTexture":{
					"index":8
				},
				"metallicFactor":0,
				"metallicRoughnessTexture":{
					"extensions":{
						"KHR_texture_transform":{
							"offset":[
								0,
								-14.5
							],
							"scale":[
								15.5,
								15.5
							]
						}
					},
					"index":9
				}
			}
		}
	],
	"meshes":[
		{
			"name":"cloth_shape_0.014",
			"primitives":[
				{
					"attributes":{
						"POSITION":0,
						"NORMAL":1,
						"TEXCOORD_0":2
					},
					"indices":3,
					"material":0
				}
			]
		},
		{
			"name":"cloth_shape_0.017",
			"primitives":[
				{
					"attributes":{
						"POSITION":4,
						"NORMAL":5,
						"TEXCOORD_0":6
					},
					"indices":7,
					"material":1
				}
			]
		},
		{
			"name":"cloth_shape_0.012",
			"primitives":[
				{
					"attributes":{
						"POSITION":8,
						"NORMAL":9,
						"TEXCOORD_0":10
					},
					"indices":11,
					"material":2
				}
			]
		},
		{
			"name":"cloth_shape_0.004",
			"primitives":[
				{
					"attributes":{
						"POSITION":12,
						"NORMAL":13,
						"TEXCOORD_0":14
					},
					"indices":15,
					"material":3
				}
			]
		},
		{
			"name":"cloth_shape_0.005",
			"primitives":[
				{
					"attributes":{
						"POSITION":16,
						"NORMAL":17,
						"TEXCOORD_0":18
					},
					"indices":15,
					"material":4
				}
			]
		},
		{
			"name":"cloth_shape_0.001",
			"primitives":[
				{
					"attributes":{
						"POSITION":19,
						"NORMAL":20,
						"TEXCOORD_0":21
					},
					"indices":22,
					"material":5
				}
			]
		}
	],
	"textures":[
		{
			"sampler":0,
			"source":0
		},
		{
			"sampler":0,
			"source":1
		},
		{
			"sampler":0,
			"source":2
		},
		{
			"sampler":0,
			"source":3
		},
		{
			"sampler":0,
			"source":4
		},
		{
			"sampler":0,
			"source":5
		},
		{
			"sampler":0,
			"source":1
		},
		{
			"sampler":0,
			"source":6
		},
		{
			"sampler":0,
			"source":1
		},
		{
			"sampler":0,
			"source":7
		}
	],
	"images":[
		{
			"mimeType":"image/png",
			"name":"Plastic_01_Tape_NRM",
			"uri":"Material_3/Plastic_01_Tape_NRM.png"
		},
		{
			"mimeType":"image/jpeg",
			"name":"Zip Color_3",
			"uri":"Material_3/Zip%20Color_3.jpg"
		},
		{
			"mimeType":"image/jpeg",
			"name":"Naht",
			"uri":"Material_3/Naht.jpg"
		},
		{
			"mimeType":"image/jpeg",
			"name":"Fabric026_4K-PNG_NormalGL",
			"uri":"Material_3/Fabric026_4K-PNG_NormalGL.jpg"
		},
		{
			"mimeType":"image/jpeg",
			"name":"Rib Color Green_2",
			"uri":"Material_3/Rib%20Color%20Green_2.jpg"
		},
		{
			"mimeType":"image/png",
			"name":"Fabric026_4K-PNG_Roughness",
			"uri":"Material_3/Fabric026_4K-PNG_Roughness.png"
		},
		{
			"mimeType":"image/jpeg",
			"name":"TCom_FabricLinen_Large_4K_normal",
			"uri":"Material_3/TCom_FabricLinen_Large_4K_normal.jpg"
		},
		{
			"mimeType":"image/jpeg",
			"name":"TCom_FabricLinen_Large_4K_roughness_2",
			"uri":"Material_3/TCom_FabricLinen_Large_4K_roughness_2.jpg"
		}
	],
	"accessors":[
		{
			"bufferView":0,
			"componentType":5126,
			"count":79,
			"max":[
				0.006329266354441643,
				0.23386745154857635,
				0.070735864341259
			],
			"min":[
				-0.004511227365583181,
				-0.20489029586315155,
				0.0018433055374771357
			],
			"type":"VEC3"
		},
		{
			"bufferView":1,
			"componentType":5126,
			"count":79,
			"type":"VEC3"
		},
		{
			"bufferView":2,
			"componentType":5126,
			"count":79,
			"type":"VEC2"
		},
		{
			"bufferView":3,
			"componentType":5123,
			"count":225,
			"type":"SCALAR"
		},
		{
			"bufferView":4,
			"componentType":5126,
			"count":140144,
			"max":[
				0.4700472056865692,
				0.18367037177085876,
				0.07564816623926163
			],
			"min":[
				-0.4731051027774811,
				-0.25867894291877747,
				-0.1626187562942505
			],
			"type":"VEC3"
		},
		{
			"bufferView":5,
			"componentType":5126,
			"count":140144,
			"type":"VEC3"
		},
		{
			"bufferView":6,
			"componentType":5126,
			"count":140144,
			"type":"VEC2"
		},
		{
			"bufferView":7,
			"componentType":5125,
			"count":721812,
			"type":"SCALAR"
		},
		{
			"bufferView":8,
			"componentType":5126,
			"count":9436,
			"max":[
				0.540741503238678,
				0.2469671666622162,
				0.07798802852630615
			],
			"min":[
				-0.5452233552932739,
				-0.3410431742668152,
				-0.1305115520954132
			],
			"type":"VEC3"
		},
		{
			"bufferView":9,
			"componentType":5126,
			"count":9436,
			"type":"VEC3"
		},
		{
			"bufferView":10,
			"componentType":5126,
			"count":9436,
			"type":"VEC2"
		},
		{
			"bufferView":11,
			"componentType":5123,
			"count":56400,
			"type":"SCALAR"
		},
		{
			"bufferView":12,
			"componentType":5126,
			"count":101851,
			"max":[
				0.0050000534392893314,
				0.23584815859794617,
				0.07151444256305695
			],
			"min":[
				-0.004533327184617519,
				-0.2049417793750763,
				0.001597544876858592
			],
			"type":"VEC3"
		},
		{
			"bufferView":13,
			"componentType":5126,
			"count":101851,
			"type":"VEC3"
		},
		{
			"bufferView":14,
			"componentType":5126,
			"count":101851,
			"type":"VEC2"
		},
		{
			"bufferView":15,
			"componentType":5125,
			"count":473106,
			"type":"SCALAR"
		},
		{
			"bufferView":16,
			"componentType":5126,
			"count":101851,
			"max":[
				0.0050000534392893314,
				0.23584815859794617,
				0.07151444256305695
			],
			"min":[
				-0.004533327184617519,
				-0.2049417793750763,
				0.001597544876858592
			],
			"type":"VEC3"
		},
		{
			"bufferView":17,
			"componentType":5126,
			"count":101851,
			"type":"VEC3"
		},
		{
			"bufferView":18,
			"componentType":5126,
			"count":101851,
			"type":"VEC2"
		},
		{
			"bufferView":19,
			"componentType":5126,
			"count":39383,
			"max":[
				0.4924798607826233,
				0.18979321420192719,
				0.0776730626821518
			],
			"min":[
				-0.4950143098831177,
				-0.29333245754241943,
				-0.1764352172613144
			],
			"type":"VEC3"
		},
		{
			"bufferView":20,
			"componentType":5126,
			"count":39383,
			"type":"VEC3"
		},
		{
			"bufferView":21,
			"componentType":5126,
			"count":39383,
			"type":"VEC2"
		},
		{
			"bufferView":22,
			"componentType":5123,
			"count":236190,
			"type":"SCALAR"
		}
	],
	"bufferViews":[
		{
			"buffer":0,
			"byteLength":948,
			"byteOffset":0,
			"target":34962
		},
		{
			"buffer":0,
			"byteLength":948,
			"byteOffset":948,
			"target":34962
		},
		{
			"buffer":0,
			"byteLength":632,
			"byteOffset":1896,
			"target":34962
		},
		{
			"buffer":0,
			"byteLength":450,
			"byteOffset":2528,
			"target":34963
		},
		{
			"buffer":0,
			"byteLength":1681728,
			"byteOffset":2980,
			"target":34962
		},
		{
			"buffer":0,
			"byteLength":1681728,
			"byteOffset":1684708,
			"target":34962
		},
		{
			"buffer":0,
			"byteLength":1121152,
			"byteOffset":3366436,
			"target":34962
		},
		{
			"buffer":0,
			"byteLength":2887248,
			"byteOffset":4487588,
			"target":34963
		},
		{
			"buffer":0,
			"byteLength":113232,
			"byteOffset":7374836,
			"target":34962
		},
		{
			"buffer":0,
			"byteLength":113232,
			"byteOffset":7488068,
			"target":34962
		},
		{
			"buffer":0,
			"byteLength":75488,
			"byteOffset":7601300,
			"target":34962
		},
		{
			"buffer":0,
			"byteLength":112800,
			"byteOffset":7676788,
			"target":34963
		},
		{
			"buffer":0,
			"byteLength":1222212,
			"byteOffset":7789588,
			"target":34962
		},
		{
			"buffer":0,
			"byteLength":1222212,
			"byteOffset":9011800,
			"target":34962
		},
		{
			"buffer":0,
			"byteLength":814808,
			"byteOffset":10234012,
			"target":34962
		},
		{
			"buffer":0,
			"byteLength":1892424,
			"byteOffset":11048820,
			"target":34963
		},
		{
			"buffer":0,
			"byteLength":1222212,
			"byteOffset":12941244,
			"target":34962
		},
		{
			"buffer":0,
			"byteLength":1222212,
			"byteOffset":14163456,
			"target":34962
		},
		{
			"buffer":0,
			"byteLength":814808,
			"byteOffset":15385668,
			"target":34962
		},
		{
			"buffer":0,
			"byteLength":472596,
			"byteOffset":16200476,
			"target":34962
		},
		{
			"buffer":0,
			"byteLength":472596,
			"byteOffset":16673072,
			"target":34962
		},
		{
			"buffer":0,
			"byteLength":315064,
			"byteOffset":17145668,
			"target":34962
		},
		{
			"buffer":0,
			"byteLength":472380,
			"byteOffset":17460732,
			"target":34963
		}
	],
	"samplers":[
		{
			"magFilter":9729,
			"minFilter":9987
		}
	],
	"buffers":[
		{
			"byteLength":17933112,
			"uri":"Custommizer_3.bin"
		}
	]
}
